<?xml version="1.0" encoding="utf-8" standalone="no"?>
<!DOCTYPE svg PUBLIC "-//W3C//DTD SVG 1.1//EN"
  "http://www.w3.org/Graphics/SVG/1.1/DTD/svg11.dtd">
<!-- Created with matplotlib (https://matplotlib.org/) -->
<svg height="280.474375pt" version="1.1" viewBox="0 0 654.77125 280.474375" width="654.77125pt" xmlns="http://www.w3.org/2000/svg" xmlns:xlink="http://www.w3.org/1999/xlink">
 <defs>
  <style type="text/css">
*{stroke-linecap:butt;stroke-linejoin:round;}
  </style>
 </defs>
 <g id="figure_1">
  <g id="patch_1">
   <path d="M 0 280.474375 
L 654.77125 280.474375 
L 654.77125 0 
L 0 0 
z
" style="fill:#ffffff;"/>
  </g>
  <g id="axes_1">
   <g id="patch_2">
    <path d="M 43.78125 242.918125 
L 320.15125 242.918125 
L 320.15125 22.318125 
L 43.78125 22.318125 
z
" style="fill:#ffffff;"/>
   </g>
   <g id="matplotlib.axis_1">
    <g id="xtick_1">
     <g id="line2d_1">
      <defs>
       <path d="M 0 0 
L 0 3.5 
" id="m6d50bd4f40" style="stroke:#000000;stroke-width:0.8;"/>
      </defs>
      <g>
       <use style="stroke:#000000;stroke-width:0.8;" x="56.343523" xlink:href="#m6d50bd4f40" y="242.918125"/>
      </g>
     </g>
     <g id="text_1">
      <text style="font-family:DejaVu Sans;font-size:10px;font-style:normal;font-weight:normal;text-anchor:middle;" transform="rotate(-0, 56.343523, 257.516563)" x="56.343523" y="257.516563">2</text>
     </g>
    </g>
    <g id="xtick_2">
     <g id="line2d_2">
      <g>
       <use style="stroke:#000000;stroke-width:0.8;" x="181.96625" xlink:href="#m6d50bd4f40" y="242.918125"/>
      </g>
     </g>
     <g id="text_2">
      <text style="font-family:DejaVu Sans;font-size:10px;font-style:normal;font-weight:normal;text-anchor:middle;" transform="rotate(-0, 181.96625, 257.516563)" x="181.96625" y="257.516563">4</text>
     </g>
    </g>
    <g id="xtick_3">
     <g id="line2d_3">
      <g>
       <use style="stroke:#000000;stroke-width:0.8;" x="307.588977" xlink:href="#m6d50bd4f40" y="242.918125"/>
      </g>
     </g>
     <g id="text_3">
      <text style="font-family:DejaVu Sans;font-size:10px;font-style:normal;font-weight:normal;text-anchor:middle;" transform="rotate(-0, 307.588977, 257.516563)" x="307.588977" y="257.516563">6</text>
     </g>
    </g>
    <g id="text_4">
     <text style="font-family:DejaVu Sans;font-size:10px;font-style:normal;font-weight:normal;text-anchor:middle;" transform="rotate(-0, 181.96625, 271.194687)" x="181.96625" y="271.194687">Active planning roles</text>
    </g>
   </g>
   <g id="matplotlib.axis_2">
    <g id="ytick_1">
     <g id="line2d_4">
      <defs>
       <path d="M 0 0 
L -3.5 0 
" id="m5cbbb82b2d" style="stroke:#000000;stroke-width:0.8;"/>
      </defs>
      <g>
       <use style="stroke:#000000;stroke-width:0.8;" x="43.78125" xlink:href="#m5cbbb82b2d" y="226.623807"/>
      </g>
     </g>
     <g id="text_5">
      <text style="font-family:DejaVu Sans;font-size:10px;font-style:normal;font-weight:normal;text-anchor:end;" transform="rotate(-0, 36.78125, 230.423026)" x="36.78125" y="230.423026">0.5</text>
     </g>
    </g>
    <g id="ytick_2">
     <g id="line2d_5">
      <g>
       <use style="stroke:#000000;stroke-width:0.8;" x="43.78125" xlink:href="#m5cbbb82b2d" y="189.021534"/>
      </g>
     </g>
     <g id="text_6">
      <text style="font-family:DejaVu Sans;font-size:10px;font-style:normal;font-weight:normal;text-anchor:end;" transform="rotate(-0, 36.78125, 192.820753)" x="36.78125" y="192.820753">1.0</text>
     </g>
    </g>
    <g id="ytick_3">
     <g id="line2d_6">
      <g>
       <use style="stroke:#000000;stroke-width:0.8;" x="43.78125" xlink:href="#m5cbbb82b2d" y="151.419261"/>
      </g>
     </g>
     <g id="text_7">
      <text style="font-family:DejaVu Sans;font-size:10px;font-style:normal;font-weight:normal;text-anchor:end;" transform="rotate(-0, 36.78125, 155.21848)" x="36.78125" y="155.21848">1.5</text>
     </g>
    </g>
    <g id="ytick_4">
     <g id="line2d_7">
      <g>
       <use style="stroke:#000000;stroke-width:0.8;" x="43.78125" xlink:href="#m5cbbb82b2d" y="113.816989"/>
      </g>
     </g>
     <g id="text_8">
      <text style="font-family:DejaVu Sans;font-size:10px;font-style:normal;font-weight:normal;text-anchor:end;" transform="rotate(-0, 36.78125, 117.616207)" x="36.78125" y="117.616207">2.0</text>
     </g>
    </g>
    <g id="ytick_5">
     <g id="line2d_8">
      <g>
       <use style="stroke:#000000;stroke-width:0.8;" x="43.78125" xlink:href="#m5cbbb82b2d" y="76.214716"/>
      </g>
     </g>
     <g id="text_9">
      <text style="font-family:DejaVu Sans;font-size:10px;font-style:normal;font-weight:normal;text-anchor:end;" transform="rotate(-0, 36.78125, 80.013935)" x="36.78125" y="80.013935">2.5</text>
     </g>
    </g>
    <g id="ytick_6">
     <g id="line2d_9">
      <g>
       <use style="stroke:#000000;stroke-width:0.8;" x="43.78125" xlink:href="#m5cbbb82b2d" y="38.612443"/>
      </g>
     </g>
     <g id="text_10">
      <text style="font-family:DejaVu Sans;font-size:10px;font-style:normal;font-weight:normal;text-anchor:end;" transform="rotate(-0, 36.78125, 42.411662)" x="36.78125" y="42.411662">3.0</text>
     </g>
    </g>
    <g id="text_11">
     <text style="font-family:DejaVu Sans;font-size:10px;font-style:normal;font-weight:normal;text-anchor:middle;" transform="rotate(-90, 14.798438, 132.618125)" x="14.798438" y="132.618125">Additional questions per project</text>
    </g>
   </g>
   <g id="line2d_10">
    <path clip-path="url(#p3ab315fe11)" d="M 56.343523 232.890852 
L 181.96625 220.356761 
L 307.588977 203.122386 
" style="fill:none;stroke:#0072b2;stroke-linecap:square;stroke-width:1.5;"/>
    <defs>
     <path d="M 0 3 
C 0.795609 3 1.55874 2.683901 2.12132 2.12132 
C 2.683901 1.55874 3 0.795609 3 0 
C 3 -0.795609 2.683901 -1.55874 2.12132 -2.12132 
C 1.55874 -2.683901 0.795609 -3 0 -3 
C -0.795609 -3 -1.55874 -2.683901 -2.12132 -2.12132 
C -2.683901 -1.55874 -3 -0.795609 -3 0 
C -3 0.795609 -2.683901 1.55874 -2.12132 2.12132 
C -1.55874 2.683901 -0.795609 3 0 3 
z
" id="m9710d92d87" style="stroke:#0072b2;"/>
    </defs>
    <g clip-path="url(#p3ab315fe11)">
     <use style="fill:#0072b2;stroke:#0072b2;" x="56.343523" xlink:href="#m9710d92d87" y="232.890852"/>
     <use style="fill:#0072b2;stroke:#0072b2;" x="181.96625" xlink:href="#m9710d92d87" y="220.356761"/>
     <use style="fill:#0072b2;stroke:#0072b2;" x="307.588977" xlink:href="#m9710d92d87" y="203.122386"/>
    </g>
   </g>
   <g id="line2d_11">
    <path clip-path="url(#p3ab315fe11)" d="M 56.343523 182.754489 
L 181.96625 182.754489 
L 307.588977 173.35392 
" style="fill:none;stroke:#009e73;stroke-linecap:square;stroke-width:1.5;"/>
    <defs>
     <path d="M 0 3 
C 0.795609 3 1.55874 2.683901 2.12132 2.12132 
C 2.683901 1.55874 3 0.795609 3 0 
C 3 -0.795609 2.683901 -1.55874 2.12132 -2.12132 
C 1.55874 -2.683901 0.795609 -3 0 -3 
C -0.795609 -3 -1.55874 -2.683901 -2.12132 -2.12132 
C -2.683901 -1.55874 -3 -0.795609 -3 0 
C -3 0.795609 -2.683901 1.55874 -2.12132 2.12132 
C -1.55874 2.683901 -0.795609 3 0 3 
z
" id="m9be2aa66d1" style="stroke:#009e73;"/>
    </defs>
    <g clip-path="url(#p3ab315fe11)">
     <use style="fill:#009e73;stroke:#009e73;" x="56.343523" xlink:href="#m9be2aa66d1" y="182.754489"/>
     <use style="fill:#009e73;stroke:#009e73;" x="181.96625" xlink:href="#m9be2aa66d1" y="182.754489"/>
     <use style="fill:#009e73;stroke:#009e73;" x="307.588977" xlink:href="#m9be2aa66d1" y="173.35392"/>
    </g>
   </g>
   <g id="line2d_12">
    <path clip-path="url(#p3ab315fe11)" d="M 56.343523 154.552784 
L 181.96625 154.552784 
L 307.588977 129.484602 
" style="fill:none;stroke:#d55e00;stroke-linecap:square;stroke-width:1.5;"/>
    <defs>
     <path d="M 0 3 
C 0.795609 3 1.55874 2.683901 2.12132 2.12132 
C 2.683901 1.55874 3 0.795609 3 0 
C 3 -0.795609 2.683901 -1.55874 2.12132 -2.12132 
C 1.55874 -2.683901 0.795609 -3 0 -3 
C -0.795609 -3 -1.55874 -2.683901 -2.12132 -2.12132 
C -2.683901 -1.55874 -3 -0.795609 -3 0 
C -3 0.795609 -2.683901 1.55874 -2.12132 2.12132 
C -1.55874 2.683901 -0.795609 3 0 3 
z
" id="m4beb9637d3" style="stroke:#d55e00;"/>
    </defs>
    <g clip-path="url(#p3ab315fe11)">
     <use style="fill:#d55e00;stroke:#d55e00;" x="56.343523" xlink:href="#m4beb9637d3" y="154.552784"/>
     <use style="fill:#d55e00;stroke:#d55e00;" x="181.96625" xlink:href="#m4beb9637d3" y="154.552784"/>
     <use style="fill:#d55e00;stroke:#d55e00;" x="307.588977" xlink:href="#m4beb9637d3" y="129.484602"/>
    </g>
   </g>
   <g id="line2d_13">
    <path clip-path="url(#p3ab315fe11)" d="M 56.343523 73.081193 
L 181.96625 73.081193 
L 307.588977 32.345398 
" style="fill:none;stroke:#cc79a7;stroke-linecap:square;stroke-width:1.5;"/>
    <defs>
     <path d="M 0 3 
C 0.795609 3 1.55874 2.683901 2.12132 2.12132 
C 2.683901 1.55874 3 0.795609 3 0 
C 3 -0.795609 2.683901 -1.55874 2.12132 -2.12132 
C 1.55874 -2.683901 0.795609 -3 0 -3 
C -0.795609 -3 -1.55874 -2.683901 -2.12132 -2.12132 
C -2.683901 -1.55874 -3 -0.795609 -3 0 
C -3 0.795609 -2.683901 1.55874 -2.12132 2.12132 
C -1.55874 2.683901 -0.795609 3 0 3 
z
" id="m1993523390" style="stroke:#cc79a7;"/>
    </defs>
    <g clip-path="url(#p3ab315fe11)">
     <use style="fill:#cc79a7;stroke:#cc79a7;" x="56.343523" xlink:href="#m1993523390" y="73.081193"/>
     <use style="fill:#cc79a7;stroke:#cc79a7;" x="181.96625" xlink:href="#m1993523390" y="73.081193"/>
     <use style="fill:#cc79a7;stroke:#cc79a7;" x="307.588977" xlink:href="#m1993523390" y="32.345398"/>
    </g>
   </g>
   <g id="line2d_14">
    <path clip-path="url(#p3ab315fe11)" d="M 56.343523 73.081193 
L 181.96625 73.081193 
L 307.588977 32.345398 
" style="fill:none;stroke:#e69f00;stroke-linecap:square;stroke-width:1.5;"/>
    <defs>
     <path d="M 0 3 
C 0.795609 3 1.55874 2.683901 2.12132 2.12132 
C 2.683901 1.55874 3 0.795609 3 0 
C 3 -0.795609 2.683901 -1.55874 2.12132 -2.12132 
C 1.55874 -2.683901 0.795609 -3 0 -3 
C -0.795609 -3 -1.55874 -2.683901 -2.12132 -2.12132 
C -2.683901 -1.55874 -3 -0.795609 -3 0 
C -3 0.795609 -2.683901 1.55874 -2.12132 2.12132 
C -1.55874 2.683901 -0.795609 3 0 3 
z
" id="m1b0aa65b96" style="stroke:#e69f00;"/>
    </defs>
    <g clip-path="url(#p3ab315fe11)">
     <use style="fill:#e69f00;stroke:#e69f00;" x="56.343523" xlink:href="#m1b0aa65b96" y="73.081193"/>
     <use style="fill:#e69f00;stroke:#e69f00;" x="181.96625" xlink:href="#m1b0aa65b96" y="73.081193"/>
     <use style="fill:#e69f00;stroke:#e69f00;" x="307.588977" xlink:href="#m1b0aa65b96" y="32.345398"/>
    </g>
   </g>
   <g id="patch_3">
    <path d="M 43.78125 242.918125 
L 43.78125 22.318125 
" style="fill:none;stroke:#000000;stroke-linecap:square;stroke-linejoin:miter;stroke-width:0.8;"/>
   </g>
   <g id="patch_4">
    <path d="M 43.78125 242.918125 
L 320.15125 242.918125 
" style="fill:none;stroke:#000000;stroke-linecap:square;stroke-linejoin:miter;stroke-width:0.8;"/>
   </g>
   <g id="text_12">
    <text style="font-family:DejaVu Sans;font-size:12px;font-style:normal;font-weight:bold;text-anchor:middle;" transform="rotate(-0, 181.96625, 16.318125)" x="181.96625" y="16.318125">Unlimited response reference</text>
   </g>
   <g id="legend_1">
    <g id="line2d_15">
     <path d="M 195.5925 108.540625 
L 211.5925 108.540625 
" style="fill:none;stroke:#0072b2;stroke-linecap:square;stroke-width:1.5;"/>
    </g>
    <g id="line2d_16">
     <g>
      <use style="fill:#0072b2;stroke:#0072b2;" x="203.5925" xlink:href="#m9710d92d87" y="108.540625"/>
     </g>
    </g>
    <g id="text_13">
     <text style="font-family:DejaVu Sans;font-size:8px;font-style:normal;font-weight:normal;text-anchor:start;" transform="rotate(-0, 217.9925, 111.340625)" x="217.9925" y="111.340625">Full history</text>
    </g>
    <g id="line2d_17">
     <path d="M 195.5925 120.283125 
L 211.5925 120.283125 
" style="fill:none;stroke:#009e73;stroke-linecap:square;stroke-width:1.5;"/>
    </g>
    <g id="line2d_18">
     <g>
      <use style="fill:#009e73;stroke:#009e73;" x="203.5925" xlink:href="#m9be2aa66d1" y="120.283125"/>
     </g>
    </g>
    <g id="text_14">
     <text style="font-family:DejaVu Sans;font-size:8px;font-style:normal;font-weight:normal;text-anchor:start;" transform="rotate(-0, 217.9925, 123.083125)" x="217.9925" y="123.083125">Semantic memory</text>
    </g>
    <g id="line2d_19">
     <path d="M 195.5925 132.025625 
L 211.5925 132.025625 
" style="fill:none;stroke:#d55e00;stroke-linecap:square;stroke-width:1.5;"/>
    </g>
    <g id="line2d_20">
     <g>
      <use style="fill:#d55e00;stroke:#d55e00;" x="203.5925" xlink:href="#m4beb9637d3" y="132.025625"/>
     </g>
    </g>
    <g id="text_15">
     <text style="font-family:DejaVu Sans;font-size:8px;font-style:normal;font-weight:normal;text-anchor:start;" transform="rotate(-0, 217.9925, 134.825625)" x="217.9925" y="134.825625">Records at read</text>
    </g>
    <g id="line2d_21">
     <path d="M 195.5925 143.768125 
L 211.5925 143.768125 
" style="fill:none;stroke:#cc79a7;stroke-linecap:square;stroke-width:1.5;"/>
    </g>
    <g id="line2d_22">
     <g>
      <use style="fill:#cc79a7;stroke:#cc79a7;" x="203.5925" xlink:href="#m1993523390" y="143.768125"/>
     </g>
    </g>
    <g id="text_16">
     <text style="font-family:DejaVu Sans;font-size:8px;font-style:normal;font-weight:normal;text-anchor:start;" transform="rotate(-0, 217.9925, 146.568125)" x="217.9925" y="146.568125">Global version check</text>
    </g>
    <g id="line2d_23">
     <path d="M 195.5925 155.510625 
L 211.5925 155.510625 
" style="fill:none;stroke:#e69f00;stroke-linecap:square;stroke-width:1.5;"/>
    </g>
    <g id="line2d_24">
     <g>
      <use style="fill:#e69f00;stroke:#e69f00;" x="203.5925" xlink:href="#m1b0aa65b96" y="155.510625"/>
     </g>
    </g>
    <g id="text_17">
     <text style="font-family:DejaVu Sans;font-size:8px;font-style:normal;font-weight:normal;text-anchor:start;" transform="rotate(-0, 217.9925, 158.310625)" x="217.9925" y="158.310625">Selective dependencies</text>
    </g>
   </g>
  </g>
  <g id="axes_2">
   <g id="patch_5">
    <path d="M 371.20125 242.918125 
L 647.57125 242.918125 
L 647.57125 22.318125 
L 371.20125 22.318125 
z
" style="fill:#ffffff;"/>
   </g>
   <g id="matplotlib.axis_3">
    <g id="xtick_4">
     <g id="line2d_25">
      <g>
       <use style="stroke:#000000;stroke-width:0.8;" x="383.763523" xlink:href="#m6d50bd4f40" y="242.918125"/>
      </g>
     </g>
     <g id="text_18">
      <text style="font-family:DejaVu Sans;font-size:10px;font-style:normal;font-weight:normal;text-anchor:middle;" transform="rotate(-0, 383.763523, 257.516563)" x="383.763523" y="257.516563">2</text>
     </g>
    </g>
    <g id="xtick_5">
     <g id="line2d_26">
      <g>
       <use style="stroke:#000000;stroke-width:0.8;" x="509.38625" xlink:href="#m6d50bd4f40" y="242.918125"/>
      </g>
     </g>
     <g id="text_19">
      <text style="font-family:DejaVu Sans;font-size:10px;font-style:normal;font-weight:normal;text-anchor:middle;" transform="rotate(-0, 509.38625, 257.516563)" x="509.38625" y="257.516563">4</text>
     </g>
    </g>
    <g id="xtick_6">
     <g id="line2d_27">
      <g>
       <use style="stroke:#000000;stroke-width:0.8;" x="635.008977" xlink:href="#m6d50bd4f40" y="242.918125"/>
      </g>
     </g>
     <g id="text_20">
      <text style="font-family:DejaVu Sans;font-size:10px;font-style:normal;font-weight:normal;text-anchor:middle;" transform="rotate(-0, 635.008977, 257.516563)" x="635.008977" y="257.516563">6</text>
     </g>
    </g>
    <g id="text_21">
     <text style="font-family:DejaVu Sans;font-size:10px;font-style:normal;font-weight:normal;text-anchor:middle;" transform="rotate(-0, 509.38625, 271.194687)" x="509.38625" y="271.194687">Active planning roles</text>
    </g>
   </g>
   <g id="matplotlib.axis_4">
    <g id="ytick_7">
     <g id="line2d_28">
      <g>
       <use style="stroke:#000000;stroke-width:0.8;" x="371.20125" xlink:href="#m5cbbb82b2d" y="236.790347"/>
      </g>
     </g>
     <g id="text_22">
      <text style="font-family:DejaVu Sans;font-size:10px;font-style:normal;font-weight:normal;text-anchor:end;" transform="rotate(-0, 364.20125, 240.589566)" x="364.20125" y="240.589566">0</text>
     </g>
    </g>
    <g id="ytick_8">
     <g id="line2d_29">
      <g>
       <use style="stroke:#000000;stroke-width:0.8;" x="371.20125" xlink:href="#m5cbbb82b2d" y="195.938495"/>
      </g>
     </g>
     <g id="text_23">
      <text style="font-family:DejaVu Sans;font-size:10px;font-style:normal;font-weight:normal;text-anchor:end;" transform="rotate(-0, 364.20125, 199.737714)" x="364.20125" y="199.737714">20</text>
     </g>
    </g>
    <g id="ytick_9">
     <g id="line2d_30">
      <g>
       <use style="stroke:#000000;stroke-width:0.8;" x="371.20125" xlink:href="#m5cbbb82b2d" y="155.086644"/>
      </g>
     </g>
     <g id="text_24">
      <text style="font-family:DejaVu Sans;font-size:10px;font-style:normal;font-weight:normal;text-anchor:end;" transform="rotate(-0, 364.20125, 158.885862)" x="364.20125" y="158.885862">40</text>
     </g>
    </g>
    <g id="ytick_10">
     <g id="line2d_31">
      <g>
       <use style="stroke:#000000;stroke-width:0.8;" x="371.20125" xlink:href="#m5cbbb82b2d" y="114.234792"/>
      </g>
     </g>
     <g id="text_25">
      <text style="font-family:DejaVu Sans;font-size:10px;font-style:normal;font-weight:normal;text-anchor:end;" transform="rotate(-0, 364.20125, 118.03401)" x="364.20125" y="118.03401">60</text>
     </g>
    </g>
    <g id="ytick_11">
     <g id="line2d_32">
      <g>
       <use style="stroke:#000000;stroke-width:0.8;" x="371.20125" xlink:href="#m5cbbb82b2d" y="73.38294"/>
      </g>
     </g>
     <g id="text_26">
      <text style="font-family:DejaVu Sans;font-size:10px;font-style:normal;font-weight:normal;text-anchor:end;" transform="rotate(-0, 364.20125, 77.182159)" x="364.20125" y="77.182159">80</text>
     </g>
    </g>
    <g id="ytick_12">
     <g id="line2d_33">
      <g>
       <use style="stroke:#000000;stroke-width:0.8;" x="371.20125" xlink:href="#m5cbbb82b2d" y="32.531088"/>
      </g>
     </g>
     <g id="text_27">
      <text style="font-family:DejaVu Sans;font-size:10px;font-style:normal;font-weight:normal;text-anchor:end;" transform="rotate(-0, 364.20125, 36.330307)" x="364.20125" y="36.330307">100</text>
     </g>
    </g>
    <g id="text_28">
     <text style="font-family:DejaVu Sans;font-size:10px;font-style:normal;font-weight:normal;text-anchor:middle;" transform="rotate(-90, 339.034063, 132.618125)" x="339.034063" y="132.618125">Correct local artifacts (%)</text>
    </g>
   </g>
   <g id="line2d_34">
    <path clip-path="url(#p8322b43e32)" d="M 383.763523 58.063495 
L 509.38625 51.680394 
L 635.008977 58.772729 
" style="fill:none;stroke:#0072b2;stroke-linecap:square;stroke-width:1.5;"/>
    <g clip-path="url(#p8322b43e32)">
     <use style="fill:#0072b2;stroke:#0072b2;" x="383.763523" xlink:href="#m9710d92d87" y="58.063495"/>
     <use style="fill:#0072b2;stroke:#0072b2;" x="509.38625" xlink:href="#m9710d92d87" y="51.680394"/>
     <use style="fill:#0072b2;stroke:#0072b2;" x="635.008977" xlink:href="#m9710d92d87" y="58.772729"/>
    </g>
   </g>
   <g id="line2d_35">
    <path clip-path="url(#p8322b43e32)" d="M 383.763523 51.680394 
L 509.38625 51.680394 
L 635.008977 55.226561 
" style="fill:none;stroke:#009e73;stroke-linecap:square;stroke-width:1.5;"/>
    <g clip-path="url(#p8322b43e32)">
     <use style="fill:#009e73;stroke:#009e73;" x="383.763523" xlink:href="#m9be2aa66d1" y="51.680394"/>
     <use style="fill:#009e73;stroke:#009e73;" x="509.38625" xlink:href="#m9be2aa66d1" y="51.680394"/>
     <use style="fill:#009e73;stroke:#009e73;" x="635.008977" xlink:href="#m9be2aa66d1" y="55.226561"/>
    </g>
   </g>
   <g id="line2d_36">
    <path clip-path="url(#p8322b43e32)" d="M 383.763523 100.617508 
L 509.38625 77.567418 
L 635.008977 93.099632 
" style="fill:none;stroke:#d55e00;stroke-linecap:square;stroke-width:1.5;"/>
    <g clip-path="url(#p8322b43e32)">
     <use style="fill:#d55e00;stroke:#d55e00;" x="383.763523" xlink:href="#m4beb9637d3" y="100.617508"/>
     <use style="fill:#d55e00;stroke:#d55e00;" x="509.38625" xlink:href="#m4beb9637d3" y="77.567418"/>
     <use style="fill:#d55e00;stroke:#d55e00;" x="635.008977" xlink:href="#m4beb9637d3" y="93.099632"/>
    </g>
   </g>
   <g id="line2d_37">
    <path clip-path="url(#p8322b43e32)" d="M 383.763523 96.362106 
L 509.38625 83.241286 
L 635.008977 96.503953 
" style="fill:none;stroke:#cc79a7;stroke-linecap:square;stroke-width:1.5;"/>
    <g clip-path="url(#p8322b43e32)">
     <use style="fill:#cc79a7;stroke:#cc79a7;" x="383.763523" xlink:href="#m1993523390" y="96.362106"/>
     <use style="fill:#cc79a7;stroke:#cc79a7;" x="509.38625" xlink:href="#m1993523390" y="83.241286"/>
     <use style="fill:#cc79a7;stroke:#cc79a7;" x="635.008977" xlink:href="#m1993523390" y="96.503953"/>
    </g>
   </g>
   <g id="line2d_38">
    <path clip-path="url(#p8322b43e32)" d="M 383.763523 96.362106 
L 509.38625 83.241286 
L 635.008977 96.503953 
" style="fill:none;stroke:#e69f00;stroke-linecap:square;stroke-width:1.5;"/>
    <g clip-path="url(#p8322b43e32)">
     <use style="fill:#e69f00;stroke:#e69f00;" x="383.763523" xlink:href="#m1b0aa65b96" y="96.362106"/>
     <use style="fill:#e69f00;stroke:#e69f00;" x="509.38625" xlink:href="#m1b0aa65b96" y="83.241286"/>
     <use style="fill:#e69f00;stroke:#e69f00;" x="635.008977" xlink:href="#m1b0aa65b96" y="96.503953"/>
    </g>
   </g>
   <g id="patch_6">
    <path d="M 371.20125 242.918125 
L 371.20125 22.318125 
" style="fill:none;stroke:#000000;stroke-linecap:square;stroke-linejoin:miter;stroke-width:0.8;"/>
   </g>
   <g id="patch_7">
    <path d="M 371.20125 242.918125 
L 647.57125 242.918125 
" style="fill:none;stroke:#000000;stroke-linecap:square;stroke-linejoin:miter;stroke-width:0.8;"/>
   </g>
   <g id="text_29">
    <text style="font-family:DejaVu Sans;font-size:12px;font-style:normal;font-weight:bold;text-anchor:middle;" transform="rotate(-0, 509.38625, 16.318125)" x="509.38625" y="16.318125">Budget: two additional answers</text>
   </g>
  </g>
 </g>
 <defs>
  <clipPath id="p3ab315fe11">
   <rect height="220.6" width="276.37" x="43.78125" y="22.318125"/>
  </clipPath>
  <clipPath id="p8322b43e32">
   <rect height="220.6" width="276.37" x="371.20125" y="22.318125"/>
  </clipPath>
 </defs>
</svg>
