<?xml version="1.0" encoding="utf-8" standalone="no"?>
<!DOCTYPE svg PUBLIC "-//W3C//DTD SVG 1.1//EN"
  "http://www.w3.org/Graphics/SVG/1.1/DTD/svg11.dtd">
<!-- Created with matplotlib (https://matplotlib.org/) -->
<svg height="266.074375pt" version="1.1" viewBox="0 0 748.70125 266.074375" width="748.70125pt" xmlns="http://www.w3.org/2000/svg" xmlns:xlink="http://www.w3.org/1999/xlink">
 <defs>
  <style type="text/css">
*{stroke-linecap:butt;stroke-linejoin:round;}
  </style>
 </defs>
 <g id="figure_1">
  <g id="patch_1">
   <path d="M 0 266.074375
L 748.70125 266.074375
L 748.70125 0
L 0 0
z
" style="fill:#ffffff;"/>
  </g>
  <g id="axes_1">
   <g id="patch_2">
    <path d="M 117.78125 228.518125
L 373.80625 228.518125
L 373.80625 22.318125
L 117.78125 22.318125
z
" style="fill:#ffffff;"/>
   </g>
   <g id="patch_3">
    <path clip-path="url(#p5117c7b6fd)" d="M 117.78125 31.690852
L 361.614583 31.690852
L 361.614583 43.150955
L 117.78125 43.150955
z
" style="fill:#56b4e9;"/>
   </g>
   <g id="patch_4">
    <path clip-path="url(#p5117c7b6fd)" d="M 117.78125 72.619792
L 219.378472 72.619792
L 219.378472 84.079896
L 117.78125 84.079896
z
" style="fill:#56b4e9;"/>
   </g>
   <g id="patch_5">
    <path clip-path="url(#p5117c7b6fd)" d="M 117.78125 113.548732
L 117.78125 113.548732
L 117.78125 125.008836
L 117.78125 125.008836
z
" style="fill:#56b4e9;"/>
   </g>
   <g id="patch_6">
    <path clip-path="url(#p5117c7b6fd)" d="M 117.78125 154.477672
L 117.78125 154.477672
L 117.78125 165.937776
L 117.78125 165.937776
z
" style="fill:#56b4e9;"/>
   </g>
   <g id="patch_7">
    <path clip-path="url(#p5117c7b6fd)" d="M 117.78125 195.406612
L 117.78125 195.406612
L 117.78125 206.866716
L 117.78125 206.866716
z
" style="fill:#56b4e9;"/>
   </g>
   <g id="patch_8">
    <path clip-path="url(#p5117c7b6fd)" d="M 117.78125 43.969534
L 361.614583 43.969534
L 361.614583 55.429638
L 117.78125 55.429638
z
" style="fill:#0072b2;"/>
   </g>
   <g id="patch_9">
    <path clip-path="url(#p5117c7b6fd)" d="M 117.78125 84.898474
L 144.873843 84.898474
L 144.873843 96.358578
L 117.78125 96.358578
z
" style="fill:#0072b2;"/>
   </g>
   <g id="patch_10">
    <path clip-path="url(#p5117c7b6fd)" d="M 117.78125 125.827414
L 121.167824 125.827414
L 121.167824 137.287518
L 117.78125 137.287518
z
" style="fill:#0072b2;"/>
   </g>
   <g id="patch_11">
    <path clip-path="url(#p5117c7b6fd)" d="M 117.78125 166.756354
L 117.78125 166.756354
L 117.78125 178.216458
L 117.78125 178.216458
z
" style="fill:#0072b2;"/>
   </g>
   <g id="patch_12">
    <path clip-path="url(#p5117c7b6fd)" d="M 117.78125 207.685295
L 117.78125 207.685295
L 117.78125 219.145398
L 117.78125 219.145398
z
" style="fill:#0072b2;"/>
   </g>
   <g id="matplotlib.axis_1">
    <g id="xtick_1">
     <g id="line2d_1">
      <defs>
       <path d="M 0 0
L 0 3.5
" id="m9678bbeeda" style="stroke:#000000;stroke-width:0.8;"/>
      </defs>
      <g>
       <use style="stroke:#000000;stroke-width:0.8;" x="117.78125" xlink:href="#m9678bbeeda" y="228.518125"/>
      </g>
     </g>
     <g id="text_1">
      <text style="font-family:DejaVu Sans;font-size:10px;font-style:normal;font-weight:normal;text-anchor:middle;" transform="rotate(-0, 117.78125, 243.116563)" x="117.78125" y="243.116563">0</text>
     </g>
    </g>
    <g id="xtick_2">
     <g id="line2d_2">
      <g>
       <use style="stroke:#000000;stroke-width:0.8;" x="151.646991" xlink:href="#m9678bbeeda" y="228.518125"/>
      </g>
     </g>
     <g id="text_2">
      <text style="font-family:DejaVu Sans;font-size:10px;font-style:normal;font-weight:normal;text-anchor:middle;" transform="rotate(-0, 151.646991, 243.116563)" x="151.646991" y="243.116563">10</text>
     </g>
    </g>
    <g id="xtick_3">
     <g id="line2d_3">
      <g>
       <use style="stroke:#000000;stroke-width:0.8;" x="185.512731" xlink:href="#m9678bbeeda" y="228.518125"/>
      </g>
     </g>
     <g id="text_3">
      <text style="font-family:DejaVu Sans;font-size:10px;font-style:normal;font-weight:normal;text-anchor:middle;" transform="rotate(-0, 185.512731, 243.116563)" x="185.512731" y="243.116563">20</text>
     </g>
    </g>
    <g id="xtick_4">
     <g id="line2d_4">
      <g>
       <use style="stroke:#000000;stroke-width:0.8;" x="219.378472" xlink:href="#m9678bbeeda" y="228.518125"/>
      </g>
     </g>
     <g id="text_4">
      <text style="font-family:DejaVu Sans;font-size:10px;font-style:normal;font-weight:normal;text-anchor:middle;" transform="rotate(-0, 219.378472, 243.116563)" x="219.378472" y="243.116563">30</text>
     </g>
    </g>
    <g id="xtick_5">
     <g id="line2d_5">
      <g>
       <use style="stroke:#000000;stroke-width:0.8;" x="253.244213" xlink:href="#m9678bbeeda" y="228.518125"/>
      </g>
     </g>
     <g id="text_5">
      <text style="font-family:DejaVu Sans;font-size:10px;font-style:normal;font-weight:normal;text-anchor:middle;" transform="rotate(-0, 253.244213, 243.116563)" x="253.244213" y="243.116563">40</text>
     </g>
    </g>
    <g id="xtick_6">
     <g id="line2d_6">
      <g>
       <use style="stroke:#000000;stroke-width:0.8;" x="287.109954" xlink:href="#m9678bbeeda" y="228.518125"/>
      </g>
     </g>
     <g id="text_6">
      <text style="font-family:DejaVu Sans;font-size:10px;font-style:normal;font-weight:normal;text-anchor:middle;" transform="rotate(-0, 287.109954, 243.116563)" x="287.109954" y="243.116563">50</text>
     </g>
    </g>
    <g id="xtick_7">
     <g id="line2d_7">
      <g>
       <use style="stroke:#000000;stroke-width:0.8;" x="320.975694" xlink:href="#m9678bbeeda" y="228.518125"/>
      </g>
     </g>
     <g id="text_7">
      <text style="font-family:DejaVu Sans;font-size:10px;font-style:normal;font-weight:normal;text-anchor:middle;" transform="rotate(-0, 320.975694, 243.116563)" x="320.975694" y="243.116563">60</text>
     </g>
    </g>
    <g id="xtick_8">
     <g id="line2d_8">
      <g>
       <use style="stroke:#000000;stroke-width:0.8;" x="354.841435" xlink:href="#m9678bbeeda" y="228.518125"/>
      </g>
     </g>
     <g id="text_8">
      <text style="font-family:DejaVu Sans;font-size:10px;font-style:normal;font-weight:normal;text-anchor:middle;" transform="rotate(-0, 354.841435, 243.116563)" x="354.841435" y="243.116563">70</text>
     </g>
    </g>
    <g id="text_9">
     <text style="font-family:DejaVu Sans;font-size:10px;font-style:normal;font-weight:normal;text-anchor:middle;" transform="rotate(-0, 245.79375, 256.794688)" x="245.79375" y="256.794688">Recorded count (units shown in labels)</text>
    </g>
   </g>
   <g id="matplotlib.axis_2">
    <g id="ytick_1">
     <g id="line2d_9">
      <defs>
       <path d="M 0 0
L -3.5 0
" id="me02c746bce" style="stroke:#000000;stroke-width:0.8;"/>
      </defs>
      <g>
       <use style="stroke:#000000;stroke-width:0.8;" x="117.78125" xlink:href="#me02c746bce" y="43.560245"/>
      </g>
     </g>
     <g id="text_10">
      <text style="font-family:DejaVu Sans;font-size:10px;font-style:normal;font-weight:normal;text-anchor:end;" transform="rotate(-0, 110.78125, 47.359464)" x="110.78125" y="47.359464">All questions</text>
     </g>
    </g>
    <g id="ytick_2">
     <g id="line2d_10">
      <g>
       <use style="stroke:#000000;stroke-width:0.8;" x="117.78125" xlink:href="#me02c746bce" y="84.489185"/>
      </g>
     </g>
     <g id="text_11">
      <text style="font-family:DejaVu Sans;font-size:10px;font-style:normal;font-weight:normal;text-anchor:end;" transform="rotate(-0, 110.78125, 88.288404)" x="110.78125" y="88.288404">Executable records</text>
     </g>
    </g>
    <g id="ytick_3">
     <g id="line2d_11">
      <g>
       <use style="stroke:#000000;stroke-width:0.8;" x="117.78125" xlink:href="#me02c746bce" y="125.418125"/>
      </g>
     </g>
     <g id="text_12">
      <text style="font-family:DejaVu Sans;font-size:10px;font-style:normal;font-weight:normal;text-anchor:end;" transform="rotate(-0, 110.78125, 129.217344)" x="110.78125" y="129.217344">Public contracts</text>
     </g>
    </g>
    <g id="ytick_4">
     <g id="line2d_12">
      <g>
       <use style="stroke:#000000;stroke-width:0.8;" x="117.78125" xlink:href="#me02c746bce" y="166.347065"/>
      </g>
     </g>
     <g id="text_13">
      <text style="font-family:DejaVu Sans;font-size:10px;font-style:normal;font-weight:normal;text-anchor:end;" transform="rotate(-0, 110.78125, 170.146284)" x="110.78125" y="170.146284">Reusable patches</text>
     </g>
    </g>
    <g id="ytick_5">
     <g id="line2d_13">
      <g>
       <use style="stroke:#000000;stroke-width:0.8;" x="117.78125" xlink:href="#me02c746bce" y="207.276005"/>
      </g>
     </g>
     <g id="text_14">
      <text style="font-family:DejaVu Sans;font-size:10px;font-style:normal;font-weight:normal;text-anchor:end;" transform="rotate(-0, 110.78125, 211.075224)" x="110.78125" y="211.075224">Committed transfers</text>
     </g>
    </g>
   </g>
   <g id="patch_13">
    <path d="M 117.78125 228.518125
L 117.78125 22.318125
" style="fill:none;stroke:#000000;stroke-linecap:square;stroke-linejoin:miter;stroke-width:0.8;"/>
   </g>
   <g id="patch_14">
    <path d="M 117.78125 228.518125
L 373.80625 228.518125
" style="fill:none;stroke:#000000;stroke-linecap:square;stroke-linejoin:miter;stroke-width:0.8;"/>
   </g>
   <g id="text_15">
    <text style="font-family:DejaVu Sans;font-size:12px;font-style:normal;font-weight:normal;text-anchor:middle;" transform="rotate(-0, 245.79375, 16.318125)" x="245.79375" y="16.318125">Representation and transfer coverage</text>
   </g>
   <g id="legend_1">
    <g id="patch_15">
     <path d="M 124.78125 223.518125
L 169.0625 223.518125
Q 171.0625 223.518125 171.0625 221.518125
L 171.0625 193.161875
Q 171.0625 191.161875 169.0625 191.161875
L 124.78125 191.161875
Q 122.78125 191.161875 122.78125 193.161875
L 122.78125 221.518125
Q 122.78125 223.518125 124.78125 223.518125
z
" style="fill:#ffffff;opacity:0.8;stroke:#cccccc;stroke-linejoin:miter;"/>
    </g>
    <g id="patch_16">
     <path d="M 126.78125 202.760313
L 146.78125 202.760313
L 146.78125 195.760313
L 126.78125 195.760313
z
" style="fill:#56b4e9;"/>
    </g>
    <g id="text_16">
     <text style="font-family:DejaVu Sans;font-size:10px;font-style:normal;font-weight:normal;text-anchor:start;" transform="rotate(-0, 154.78125, 202.760313)" x="154.78125" y="202.760313">v1</text>
    </g>
    <g id="patch_17">
     <path d="M 126.78125 217.438438
L 146.78125 217.438438
L 146.78125 210.438438
L 126.78125 210.438438
z
" style="fill:#0072b2;"/>
    </g>
    <g id="text_17">
     <text style="font-family:DejaVu Sans;font-size:10px;font-style:normal;font-weight:normal;text-anchor:start;" transform="rotate(-0, 154.78125, 217.438438)" x="154.78125" y="217.438438">v2</text>
    </g>
   </g>
  </g>
  <g id="axes_2">
   <g id="patch_18">
    <path d="M 485.47625 228.518125
L 741.50125 228.518125
L 741.50125 22.318125
L 485.47625 22.318125
z
" style="fill:#ffffff;"/>
   </g>
   <g id="patch_19">
    <path clip-path="url(#p57a0d454c2)" d="M 652.280417 31.690852
L 652.280417 31.690852
L 652.280417 40.185771
L 652.280417 40.185771
z
" style="fill:#009e73;"/>
   </g>
   <g id="patch_20">
    <path clip-path="url(#p57a0d454c2)" d="M 652.280417 60.007249
L 652.280417 60.007249
L 652.280417 68.502168
L 652.280417 68.502168
z
" style="fill:#009e73;"/>
   </g>
   <g id="patch_21">
    <path clip-path="url(#p57a0d454c2)" d="M 652.280417 88.323645
L 652.280417 88.323645
L 652.280417 96.818564
L 652.280417 96.818564
z
" style="fill:#009e73;"/>
   </g>
   <g id="patch_22">
    <path clip-path="url(#p57a0d454c2)" d="M 652.280417 116.640042
L 652.280417 116.640042
L 652.280417 125.134961
L 652.280417 125.134961
z
" style="fill:#009e73;"/>
   </g>
   <g id="patch_23">
    <path clip-path="url(#p57a0d454c2)" d="M 652.280417 144.956439
L 729.86375 144.956439
L 729.86375 153.451358
L 652.280417 153.451358
z
" style="fill:#009e73;"/>
   </g>
   <g id="patch_24">
    <path clip-path="url(#p57a0d454c2)" d="M 652.280417 173.272835
L 652.280417 173.272835
L 652.280417 181.767754
L 652.280417 181.767754
z
" style="fill:#009e73;"/>
   </g>
   <g id="patch_25">
    <path clip-path="url(#p57a0d454c2)" d="M 652.280417 201.589232
L 652.280417 201.589232
L 652.280417 210.084151
L 652.280417 210.084151
z
" style="fill:#009e73;"/>
   </g>
   <g id="patch_26">
    <path clip-path="url(#p57a0d454c2)" d="M 652.280417 40.752099
L 652.280417 40.752099
L 652.280417 49.247018
L 652.280417 49.247018
z
" style="fill:#d55e00;"/>
   </g>
   <g id="patch_27">
    <path clip-path="url(#p57a0d454c2)" d="M 652.280417 69.068496
L 652.280417 69.068496
L 652.280417 77.563415
L 652.280417 77.563415
z
" style="fill:#d55e00;"/>
   </g>
   <g id="patch_28">
    <path clip-path="url(#p57a0d454c2)" d="M 652.280417 97.384892
L 497.11375 97.384892
L 497.11375 105.879811
L 652.280417 105.879811
z
" style="fill:#d55e00;"/>
   </g>
   <g id="patch_29">
    <path clip-path="url(#p57a0d454c2)" d="M 652.280417 125.701289
L 652.280417 125.701289
L 652.280417 134.196208
L 652.280417 134.196208
z
" style="fill:#d55e00;"/>
   </g>
   <g id="patch_30">
    <path clip-path="url(#p57a0d454c2)" d="M 652.280417 154.017686
L 652.280417 154.017686
L 652.280417 162.512605
L 652.280417 162.512605
z
" style="fill:#d55e00;"/>
   </g>
   <g id="patch_31">
    <path clip-path="url(#p57a0d454c2)" d="M 652.280417 182.334082
L 652.280417 182.334082
L 652.280417 190.829001
L 652.280417 190.829001
z
" style="fill:#d55e00;"/>
   </g>
   <g id="patch_32">
    <path clip-path="url(#p57a0d454c2)" d="M 652.280417 210.650479
L 652.280417 210.650479
L 652.280417 219.145398
L 652.280417 219.145398
z
" style="fill:#d55e00;"/>
   </g>
   <g id="matplotlib.axis_3">
    <g id="xtick_9">
     <g id="line2d_14">
      <g>
       <use style="stroke:#000000;stroke-width:0.8;" x="497.11375" xlink:href="#m9678bbeeda" y="228.518125"/>
      </g>
     </g>
     <g id="text_18">
      <text style="font-family:DejaVu Sans;font-size:10px;font-style:normal;font-weight:normal;text-anchor:middle;" transform="rotate(-0, 497.11375, 243.116563)" x="497.11375" y="243.116563">−4</text>
     </g>
    </g>
    <g id="xtick_10">
     <g id="line2d_15">
      <g>
       <use style="stroke:#000000;stroke-width:0.8;" x="535.905417" xlink:href="#m9678bbeeda" y="228.518125"/>
      </g>
     </g>
     <g id="text_19">
      <text style="font-family:DejaVu Sans;font-size:10px;font-style:normal;font-weight:normal;text-anchor:middle;" transform="rotate(-0, 535.905417, 243.116563)" x="535.905417" y="243.116563">−3</text>
     </g>
    </g>
    <g id="xtick_11">
     <g id="line2d_16">
      <g>
       <use style="stroke:#000000;stroke-width:0.8;" x="574.697083" xlink:href="#m9678bbeeda" y="228.518125"/>
      </g>
     </g>
     <g id="text_20">
      <text style="font-family:DejaVu Sans;font-size:10px;font-style:normal;font-weight:normal;text-anchor:middle;" transform="rotate(-0, 574.697083, 243.116563)" x="574.697083" y="243.116563">−2</text>
     </g>
    </g>
    <g id="xtick_12">
     <g id="line2d_17">
      <g>
       <use style="stroke:#000000;stroke-width:0.8;" x="613.48875" xlink:href="#m9678bbeeda" y="228.518125"/>
      </g>
     </g>
     <g id="text_21">
      <text style="font-family:DejaVu Sans;font-size:10px;font-style:normal;font-weight:normal;text-anchor:middle;" transform="rotate(-0, 613.48875, 243.116563)" x="613.48875" y="243.116563">−1</text>
     </g>
    </g>
    <g id="xtick_13">
     <g id="line2d_18">
      <g>
       <use style="stroke:#000000;stroke-width:0.8;" x="652.280417" xlink:href="#m9678bbeeda" y="228.518125"/>
      </g>
     </g>
     <g id="text_22">
      <text style="font-family:DejaVu Sans;font-size:10px;font-style:normal;font-weight:normal;text-anchor:middle;" transform="rotate(-0, 652.280417, 243.116563)" x="652.280417" y="243.116563">0</text>
     </g>
    </g>
    <g id="xtick_14">
     <g id="line2d_19">
      <g>
       <use style="stroke:#000000;stroke-width:0.8;" x="691.072083" xlink:href="#m9678bbeeda" y="228.518125"/>
      </g>
     </g>
     <g id="text_23">
      <text style="font-family:DejaVu Sans;font-size:10px;font-style:normal;font-weight:normal;text-anchor:middle;" transform="rotate(-0, 691.072083, 243.116563)" x="691.072083" y="243.116563">1</text>
     </g>
    </g>
    <g id="xtick_15">
     <g id="line2d_20">
      <g>
       <use style="stroke:#000000;stroke-width:0.8;" x="729.86375" xlink:href="#m9678bbeeda" y="228.518125"/>
      </g>
     </g>
     <g id="text_24">
      <text style="font-family:DejaVu Sans;font-size:10px;font-style:normal;font-weight:normal;text-anchor:middle;" transform="rotate(-0, 729.86375, 243.116563)" x="729.86375" y="243.116563">2</text>
     </g>
    </g>
    <g id="text_25">
     <text style="font-family:DejaVu Sans;font-size:10px;font-style:normal;font-weight:normal;text-anchor:middle;" transform="rotate(-0, 613.48875, 256.794688)" x="613.48875" y="256.794688">Distinct answers harmed (-) or repaired (+)</text>
    </g>
   </g>
   <g id="matplotlib.axis_4">
    <g id="ytick_6">
     <g id="line2d_21">
      <g>
       <use style="stroke:#000000;stroke-width:0.8;" x="485.47625" xlink:href="#me02c746bce" y="40.468935"/>
      </g>
     </g>
     <g id="text_26">
      <text style="font-family:DejaVu Sans;font-size:10px;font-style:normal;font-weight:normal;text-anchor:end;" transform="rotate(-0, 478.47625, 44.268154)" x="478.47625" y="44.268154">Individual</text>
     </g>
    </g>
    <g id="ytick_7">
     <g id="line2d_22">
      <g>
       <use style="stroke:#000000;stroke-width:0.8;" x="485.47625" xlink:href="#me02c746bce" y="68.785332"/>
      </g>
     </g>
     <g id="text_27">
      <text style="font-family:DejaVu Sans;font-size:10px;font-style:normal;font-weight:normal;text-anchor:end;" transform="rotate(-0, 478.47625, 72.584551)" x="478.47625" y="72.584551">Execution only</text>
     </g>
    </g>
    <g id="ytick_8">
     <g id="line2d_23">
      <g>
       <use style="stroke:#000000;stroke-width:0.8;" x="485.47625" xlink:href="#me02c746bce" y="97.101728"/>
      </g>
     </g>
     <g id="text_28">
      <text style="font-family:DejaVu Sans;font-size:10px;font-style:normal;font-weight:normal;text-anchor:end;" transform="rotate(-0, 478.47625, 100.900947)" x="478.47625" y="100.900947">Reattempt</text>
     </g>
    </g>
    <g id="ytick_9">
     <g id="line2d_24">
      <g>
       <use style="stroke:#000000;stroke-width:0.8;" x="485.47625" xlink:href="#me02c746bce" y="125.418125"/>
      </g>
     </g>
     <g id="text_29">
      <text style="font-family:DejaVu Sans;font-size:10px;font-style:normal;font-weight:normal;text-anchor:end;" transform="rotate(-0, 478.47625, 129.217344)" x="478.47625" y="129.217344">Source verification</text>
     </g>
    </g>
    <g id="ytick_10">
     <g id="line2d_25">
      <g>
       <use style="stroke:#000000;stroke-width:0.8;" x="485.47625" xlink:href="#me02c746bce" y="153.734522"/>
      </g>
     </g>
     <g id="text_30">
      <text style="font-family:DejaVu Sans;font-size:10px;font-style:normal;font-weight:normal;text-anchor:end;" transform="rotate(-0, 478.47625, 157.53374)" x="478.47625" y="157.53374">Coarse transfer</text>
     </g>
    </g>
    <g id="ytick_11">
     <g id="line2d_26">
      <g>
       <use style="stroke:#000000;stroke-width:0.8;" x="485.47625" xlink:href="#me02c746bce" y="182.050918"/>
      </g>
     </g>
     <g id="text_31">
      <text style="font-family:DejaVu Sans;font-size:10px;font-style:normal;font-weight:normal;text-anchor:end;" transform="rotate(-0, 478.47625, 185.850137)" x="478.47625" y="185.850137">Constrained patch</text>
     </g>
    </g>
    <g id="ytick_12">
     <g id="line2d_27">
      <g>
       <use style="stroke:#000000;stroke-width:0.8;" x="485.47625" xlink:href="#me02c746bce" y="210.367315"/>
      </g>
     </g>
     <g id="text_32">
      <text style="font-family:DejaVu Sans;font-size:10px;font-style:normal;font-weight:normal;text-anchor:end;" transform="rotate(-0, 478.47625, 214.166534)" x="478.47625" y="214.166534">No scope check</text>
     </g>
    </g>
   </g>
   <g id="line2d_28">
    <path clip-path="url(#p57a0d454c2)" d="M 652.280417 228.518125
L 652.280417 22.318125
" style="fill:none;stroke:#444444;stroke-linecap:square;stroke-width:0.8;"/>
   </g>
   <g id="patch_33">
    <path d="M 485.47625 228.518125
L 485.47625 22.318125
" style="fill:none;stroke:#000000;stroke-linecap:square;stroke-linejoin:miter;stroke-width:0.8;"/>
   </g>
   <g id="patch_34">
    <path d="M 485.47625 228.518125
L 741.50125 228.518125
" style="fill:none;stroke:#000000;stroke-linecap:square;stroke-linejoin:miter;stroke-width:0.8;"/>
   </g>
   <g id="text_33">
    <text style="font-family:DejaVu Sans;font-size:12px;font-style:normal;font-weight:normal;text-anchor:middle;" transform="rotate(-0, 613.48875, 16.318125)" x="613.48875" y="16.318125">v2: final never-inspected outputs</text>
   </g>
   <g id="legend_2">
    <g id="patch_35">
     <path d="M 655.02625 52.203125
L 735.90125 52.203125
Q 737.50125 52.203125 737.50125 50.603125
L 737.50125 27.918125
Q 737.50125 26.318125 735.90125 26.318125
L 655.02625 26.318125
Q 653.42625 26.318125 653.42625 27.918125
L 653.42625 50.603125
Q 653.42625 52.203125 655.02625 52.203125
z
" style="fill:#ffffff;opacity:0.8;stroke:#cccccc;stroke-linejoin:miter;"/>
    </g>
    <g id="patch_36">
     <path d="M 656.62625 35.596875
L 672.62625 35.596875
L 672.62625 29.996875
L 656.62625 29.996875
z
" style="fill:#009e73;"/>
    </g>
    <g id="text_34">
     <text style="font-family:DejaVu Sans;font-size:8px;font-style:normal;font-weight:normal;text-anchor:start;" transform="rotate(-0, 679.02625, 35.596875)" x="679.02625" y="35.596875">Newly correct</text>
    </g>
    <g id="patch_37">
     <path d="M 656.62625 47.339375
L 672.62625 47.339375
L 672.62625 41.739375
L 656.62625 41.739375
z
" style="fill:#d55e00;"/>
    </g>
    <g id="text_35">
     <text style="font-family:DejaVu Sans;font-size:8px;font-style:normal;font-weight:normal;text-anchor:start;" transform="rotate(-0, 679.02625, 47.339375)" x="679.02625" y="47.339375">Made wrong</text>
    </g>
   </g>
  </g>
 </g>
 <defs>
  <clipPath id="p5117c7b6fd">
   <rect height="206.2" width="256.025" x="117.78125" y="22.318125"/>
  </clipPath>
  <clipPath id="p57a0d454c2">
   <rect height="206.2" width="256.025" x="485.47625" y="22.318125"/>
  </clipPath>
 </defs>
</svg>
